<svg xmlns="http://www.w3.org/2000/svg" width="180" height="180" viewBox="0 0 180 180" version="1.1"><path d="M 62.339 46.829 C 61.710 47.835, 58.412 51.885, 55.009 55.829 L 48.822 63 51.764 63 C 53.383 63, 57.540 63.296, 61.003 63.658 L 67.300 64.316 66.628 58.908 C 64.752 43.808, 64.561 43.271, 62.339 46.829 M 152.250 72.031 C 148.197 73.660, 149.818 77.163, 155.256 78.528 C 156.765 78.907, 158 79.632, 158 80.140 C 158 81.733, 154.817 82.367, 152.881 81.158 C 151.861 80.521, 150.234 80.015, 149.264 80.033 C 147.773 80.061, 147.865 80.371, 149.861 82.033 C 152.825 84.503, 157.094 84.554, 160.056 82.156 C 163.094 79.696, 162.037 77.285, 157.553 76.444 C 155.599 76.077, 154 75.363, 154 74.857 C 154 73.377, 156.912 72.682, 158.296 73.831 C 159.067 74.471, 160.130 74.537, 161 74 C 162.119 73.308, 161.825 72.884, 159.651 72.057 C 156.388 70.817, 155.281 70.813, 152.250 72.031 M 126.119 76.443 C 124.675 82.177, 124.704 84.265, 126.220 83.760 C 126.891 83.536, 127.920 81.383, 128.506 78.974 L 129.573 74.595 132.328 79.297 C 133.844 81.884, 135.663 84, 136.370 84 C 137.096 84, 138.167 81.787, 138.828 78.924 C 140.326 72.434, 140.306 72, 138.500 72 C 137.675 72, 136.993 72.787, 136.985 73.750 C 136.976 74.713, 136.572 76.128, 136.086 76.896 C 135.404 77.972, 134.829 77.571, 133.575 75.146 C 132.450 72.969, 131.223 72, 129.593 72 C 127.640 72, 127.046 72.760, 126.119 76.443 M 143.083 77.049 C 141.688 83.552, 141.713 84, 143.461 84 C 144.342 84, 145.359 82.310, 146.021 79.750 C 146.625 77.412, 147.348 74.713, 147.627 73.750 C 147.989 72.501, 147.567 72, 146.150 72 C 144.576 72, 143.942 73.044, 143.083 77.049 M 24.756 92.250 C 20.060 97.888, 16.545 102.625, 16.943 102.778 C 17.845 103.124, 45.205 94.049, 46.297 93.042 C 47.014 92.380, 35.361 82, 33.900 82 C 33.566 82, 29.451 86.612, 24.756 92.250 M 69 89 C 69.589 90.100, 70.295 91, 70.570 91 C 70.845 91, 70.589 90.100, 70 89 C 69.411 87.900, 68.705 87, 68.430 87 C 68.155 87, 68.411 87.900, 69 89 M 76.813 87.683 C 77.534 87.972, 78.397 87.936, 78.729 87.604 C 79.061 87.272, 78.471 87.036, 77.417 87.079 C 76.252 87.127, 76.015 87.364, 76.813 87.683 M 80 89 C 80 91.005, 81.902 91.333, 83.184 89.548 C 84.097 88.277, 83.223 87, 81.441 87 C 80.648 87, 80 87.900, 80 89 M 92.333 87.667 C 92.700 88.033, 93.300 88.033, 93.667 87.667 C 94.033 87.300, 93.733 87, 93 87 C 92.267 87, 91.967 87.300, 92.333 87.667 M 96.710 89 C 96.998 90.100, 97.353 91, 97.500 91 C 97.647 91, 98.002 90.100, 98.290 89 C 98.617 87.750, 98.320 87, 97.500 87 C 96.680 87, 96.383 87.750, 96.710 89 M 101 89 C 101 90.100, 101.173 91, 101.383 91 C 101.594 91, 102.002 90.100, 102.290 89 C 102.577 87.900, 102.405 87, 101.906 87 C 101.408 87, 101 87.900, 101 89 M 106.333 87.667 C 106.700 88.033, 107.300 88.033, 107.667 87.667 C 108.033 87.300, 107.733 87, 107 87 C 106.267 87, 105.967 87.300, 106.333 87.667 M 115.116 89.250 C 115.204 90.962, 115.342 91.079, 115.692 89.738 C 115.945 88.769, 116.567 88.233, 117.076 88.547 C 117.584 88.861, 118 88.641, 118 88.059 C 118 87.477, 117.325 87, 116.500 87 C 115.577 87, 115.045 87.865, 115.116 89.250 M 121.080 89.250 C 119.849 91.226, 119.859 91.351, 121.163 90.274 C 122.335 89.306, 122.921 89.306, 123.946 90.274 C 125.006 91.275, 125.032 91.087, 124.087 89.250 C 123.451 88.013, 122.829 87, 122.705 87 C 122.582 87, 121.851 88.013, 121.080 89.250 M 127 88.833 C 127 89.842, 127.668 90.667, 128.484 90.667 C 129.687 90.667, 129.734 90.378, 128.734 89.141 C 127.752 87.928, 127.755 87.770, 128.750 88.367 C 129.438 88.780, 130 88.641, 130 88.059 C 130 87.477, 129.325 87, 128.500 87 C 127.675 87, 127 87.825, 127 88.833 M 132.710 89 C 132.998 90.100, 133.353 91, 133.500 91 C 133.647 91, 134.002 90.100, 134.290 89 C 134.617 87.750, 134.320 87, 133.500 87 C 132.680 87, 132.383 87.750, 132.710 89 M 137 88.941 C 137 91.356, 137.556 91.599, 138.349 89.532 C 138.659 88.725, 138.482 87.798, 137.956 87.473 C 137.430 87.148, 137 87.809, 137 88.941 M 140.158 89 C 140.158 90.375, 140.385 90.938, 140.662 90.250 C 140.940 89.563, 140.940 88.438, 140.662 87.750 C 140.385 87.063, 140.158 87.625, 140.158 89 M 144 88.500 C 144 89.325, 144.177 90, 144.393 90 C 144.609 90, 145.045 89.325, 145.362 88.500 C 145.678 87.675, 145.501 87, 144.969 87 C 144.436 87, 144 87.675, 144 88.500 M 148.667 87.667 C 148.300 88.033, 148 88.933, 148 89.667 C 148 91.133, 150.102 91.055, 151.184 89.548 C 152.455 87.778, 150.223 86.110, 148.667 87.667 M 88.079 89.583 C 88.127 90.748, 88.364 90.985, 88.683 90.188 C 88.972 89.466, 88.936 88.603, 88.604 88.271 C 88.272 87.939, 88.036 88.529, 88.079 89.583 M 108.638 89.500 C 108.322 90.325, 108.499 91, 109.031 91 C 109.564 91, 110 90.325, 110 89.500 C 110 88.675, 109.823 88, 109.607 88 C 109.391 88, 108.955 88.675, 108.638 89.500 M 149.333 88.667 C 149.700 89.033, 150.300 89.033, 150.667 88.667 C 151.033 88.300, 150.733 88, 150 88 C 149.267 88, 148.967 88.300, 149.333 88.667 M 66.405 90.155 C 65.962 90.870, 66.130 91.038, 66.845 90.595 C 67.998 89.883, 68.393 89, 67.559 89 C 67.316 89, 66.797 89.520, 66.405 90.155" stroke="none" fill="#fc0b0b" fill-rule="evenodd"/><path d="M 64.787 47 C 65.029 48.650, 65.401 50, 65.613 50 C 65.826 50, 66 48.650, 66 47 C 66 45.350, 65.628 44, 65.173 44 C 64.718 44, 64.545 45.350, 64.787 47 M 60.872 47.750 C 59.629 49.336, 59.664 49.371, 61.250 48.128 C 62.212 47.373, 63 46.585, 63 46.378 C 63 45.555, 62.179 46.084, 60.872 47.750 M 56.437 53.250 L 53.500 56.500 56.750 53.563 C 58.538 51.948, 60 50.485, 60 50.313 C 60 49.540, 59.175 50.221, 56.437 53.250 M 66.079 56.583 C 66.127 57.748, 66.364 57.985, 66.683 57.188 C 66.972 56.466, 66.936 55.603, 66.604 55.271 C 66.272 54.939, 66.036 55.529, 66.079 56.583 M 51.405 59.250 L 49.500 61.500 51.750 59.595 C 53.864 57.805, 54.455 57, 53.655 57 C 53.465 57, 52.453 58.013, 51.405 59.250 M 67.116 62.390 C 67.011 64.093, 66.431 64.214, 61.250 63.619 C 58.087 63.256, 45.150 62.713, 32.500 62.414 C 13.423 61.963, 9.764 62.094, 11.047 63.185 C 11.899 63.908, 17.208 68.252, 22.846 72.839 C 31.866 80.175, 32.942 81.377, 31.799 82.839 C 30.637 84.325, 30.684 84.355, 32.250 83.128 C 34.198 81.600, 33.659 81.317, 42.225 88.377 C 44.824 90.519, 46.710 92.660, 46.416 93.136 C 46.122 93.611, 46.592 94, 47.460 94 C 48.328 94, 54.443 98.500, 61.049 104 C 72.577 113.598, 75.850 115.659, 74.666 112.571 C 74.364 111.785, 73.834 109.423, 73.489 107.321 C 73.143 105.219, 72.368 101.025, 71.766 98 C 70.827 93.277, 70.569 92.853, 69.936 95 C 69.531 96.375, 69.155 99.249, 69.100 101.387 L 69 105.274 63.750 100.461 C 60.862 97.814, 52.451 89.765, 45.057 82.574 L 31.615 69.500 37.057 68.867 C 40.051 68.519, 59.150 67.905, 79.500 67.504 C 130.062 66.505, 135.807 65.612, 98.299 64.580 C 71.712 63.848, 68.046 63.554, 67.665 62.124 C 67.321 60.835, 67.208 60.889, 67.116 62.390 M 59.145 76.909 C 56.865 80.159, 55 83.084, 55 83.409 C 55 84.715, 59.826 83.897, 60.362 82.500 C 60.678 81.675, 62.090 81, 63.500 81 C 64.910 81, 66.322 81.675, 66.638 82.500 C 67.371 84.408, 71 84.472, 71 82.576 C 71 81.793, 70.473 78.868, 69.828 76.076 C 68.778 71.527, 68.378 71, 65.973 71 C 63.832 71, 62.452 72.195, 59.145 76.909 M 74.138 76.667 C 73.512 79.784, 73 82.731, 73 83.217 C 73 84.611, 84.282 83.683, 84.754 82.250 C 85.034 81.401, 83.980 81, 81.467 81 C 78.107 81, 77.826 80.793, 78.407 78.750 C 80.427 71.656, 80.373 71, 77.763 71 C 75.540 71, 75.155 71.602, 74.138 76.667 M 87.119 75.443 C 85.510 81.830, 85.664 84.212, 87.660 83.823 C 88.601 83.640, 89.844 81.766, 90.528 79.500 L 91.734 75.500 92.495 79.750 C 93.487 85.293, 95.629 85.291, 99.331 79.743 C 101.678 76.226, 102.064 75.955, 101.586 78.157 C 101.268 79.619, 100.720 81.567, 100.367 82.487 C 99.844 83.850, 100.258 84.098, 102.601 83.830 C 105.010 83.553, 105.577 82.933, 106.097 80 C 106.439 78.075, 107.055 75.263, 107.467 73.750 C 108.179 71.140, 108.043 71, 104.796 71 C 102.103 71, 100.870 71.685, 98.994 74.222 L 96.612 77.443 95.778 74.222 C 95.046 71.399, 94.527 71, 91.590 71 C 88.457 71, 88.164 71.292, 87.119 75.443 M 110.750 76.600 C 108.688 79.639, 107 82.547, 107 83.062 C 107 84.604, 110.739 84.122, 111.362 82.500 C 111.698 81.623, 113.197 81, 114.969 81 C 116.997 81, 118 81.497, 118 82.500 C 118 83.450, 118.956 84, 120.608 84 C 123.444 84, 123.432 84.384, 120.906 74.750 C 120.071 71.564, 119.515 71.006, 117.211 71.038 C 115.061 71.068, 113.724 72.220, 110.750 76.600 M 126.345 72.543 C 126.019 73.392, 126.034 74.367, 126.376 74.710 C 126.719 75.053, 127 74.532, 127 73.553 C 127 72.151, 127.626 71.865, 129.947 72.206 C 131.568 72.443, 132.667 72.270, 132.388 71.819 C 131.506 70.391, 126.962 70.936, 126.345 72.543 M 138 71.729 C 138.825 72.043, 139.831 72.795, 140.235 73.400 C 140.688 74.078, 140.975 73.829, 140.985 72.750 C 140.995 71.574, 140.262 71.026, 138.750 71.079 C 137.247 71.132, 136.998 71.347, 138 71.729 M 143.345 72.543 C 143.019 73.392, 143.034 74.367, 143.376 74.710 C 143.719 75.053, 144 74.531, 144 73.550 C 144 72.187, 144.589 71.879, 146.500 72.245 C 147.875 72.508, 149 72.335, 149 71.861 C 149 70.337, 143.958 70.945, 143.345 72.543 M 152.333 71.667 C 152.700 72.033, 153.300 72.033, 153.667 71.667 C 154.033 71.300, 153.733 71, 153 71 C 152.267 71, 151.967 71.300, 152.333 71.667 M 159.976 72.115 C 161.998 72.922, 162.181 73.274, 160.976 74.036 C 159.735 74.821, 159.778 74.972, 161.250 74.985 C 162.213 74.993, 163 74.640, 163 74.200 C 163 72.839, 160.680 70.997, 159.050 71.063 C 158.194 71.098, 158.608 71.569, 159.976 72.115 M 155 73.383 C 155 73.594, 155.901 74.002, 157.001 74.290 C 158.102 74.578, 158.751 74.405, 158.442 73.907 C 157.904 73.036, 155 72.594, 155 73.383 M 134 76 C 134.589 77.100, 135.295 78, 135.570 78 C 135.845 78, 135.589 77.100, 135 76 C 134.411 74.900, 133.705 74, 133.430 74 C 133.155 74, 133.411 74.900, 134 76 M 136 75 C 136 75.733, 136.300 76.033, 136.667 75.667 C 137.033 75.300, 137.033 74.700, 136.667 74.333 C 136.300 73.967, 136 74.267, 136 75 M 147 75 C 147 75.733, 147.300 76.033, 147.667 75.667 C 148.033 75.300, 148.033 74.700, 147.667 74.333 C 147.300 73.967, 147 74.267, 147 75 M 63.638 76.500 C 63.322 77.325, 63.499 78, 64.031 78 C 64.564 78, 65 77.325, 65 76.500 C 65 75.675, 64.823 75, 64.607 75 C 64.391 75, 63.955 75.675, 63.638 76.500 M 129 76.559 C 129 77.416, 129.457 77.835, 130.016 77.490 C 130.575 77.144, 130.774 76.443, 130.457 75.931 C 129.600 74.544, 129 74.802, 129 76.559 M 154.333 75.667 C 154.700 76.033, 155.300 76.033, 155.667 75.667 C 156.033 75.300, 155.733 75, 155 75 C 154.267 75, 153.967 75.300, 154.333 75.667 M 115 77.559 C 115 78.416, 115.450 78.840, 116 78.500 C 116.550 78.160, 117 77.459, 117 76.941 C 117 76.423, 116.550 76, 116 76 C 115.450 76, 115 76.702, 115 77.559 M 139 77 C 139 77.733, 139.300 78.033, 139.667 77.667 C 140.033 77.300, 140.033 76.700, 139.667 76.333 C 139.300 75.967, 139 76.267, 139 77 M 150.500 77 C 150.840 77.550, 151.343 78, 151.618 78 C 151.893 78, 151.840 77.550, 151.500 77 C 151.160 76.450, 150.657 76, 150.382 76 C 150.107 76, 150.160 76.450, 150.500 77 M 158.333 76.667 C 158.700 77.033, 159.300 77.033, 159.667 76.667 C 160.033 76.300, 159.733 76, 159 76 C 158.267 76, 157.967 76.300, 158.333 76.667 M 142.079 78.583 C 142.127 79.748, 142.364 79.985, 142.683 79.188 C 142.972 78.466, 142.936 77.603, 142.604 77.271 C 142.272 76.939, 142.036 77.529, 142.079 78.583 M 146.079 79.583 C 146.127 80.748, 146.364 80.985, 146.683 80.188 C 146.972 79.466, 146.936 78.603, 146.604 78.271 C 146.272 77.939, 146.036 78.529, 146.079 79.583 M 153.333 78.667 C 153.700 79.033, 154.300 79.033, 154.667 78.667 C 155.033 78.300, 154.733 78, 154 78 C 153.267 78, 152.967 78.300, 153.333 78.667 M 128.079 80.583 C 128.127 81.748, 128.364 81.985, 128.683 81.188 C 128.972 80.466, 128.936 79.603, 128.604 79.271 C 128.272 78.939, 128.036 79.529, 128.079 80.583 M 151.729 80.638 C 154.978 82.239, 158 81.947, 158 80.031 C 158 79.464, 157.523 79, 156.941 79 C 156.359 79, 156.160 79.450, 156.500 80 C 156.840 80.550, 156.218 81, 155.118 81 C 154.018 81, 152.840 80.550, 152.500 80 C 152.160 79.450, 151.121 79.010, 150.191 79.023 C 149.222 79.036, 149.878 79.725, 151.729 80.638 M 160.286 81.699 C 159.068 82.965, 158.436 84, 158.881 84 C 159.856 84, 163.494 80.112, 162.911 79.693 C 162.685 79.531, 161.504 80.434, 160.286 81.699 M 138.079 81.583 C 138.127 82.748, 138.364 82.985, 138.683 82.188 C 138.972 81.466, 138.936 80.603, 138.604 80.271 C 138.272 79.939, 138.036 80.529, 138.079 81.583 M 124.079 82.583 C 124.127 83.748, 124.364 83.985, 124.683 83.188 C 124.972 82.466, 124.936 81.603, 124.604 81.271 C 124.272 80.939, 124.036 81.529, 124.079 82.583 M 133 81.941 C 133 82.459, 133.445 83.157, 133.989 83.493 C 134.555 83.843, 134.723 83.442, 134.382 82.552 C 133.717 80.820, 133 80.503, 133 81.941 M 141.079 82.583 C 141.127 83.748, 141.364 83.985, 141.683 83.188 C 141.972 82.466, 141.936 81.603, 141.604 81.271 C 141.272 80.939, 141.036 81.529, 141.079 82.583 M 148.500 82 C 148.840 82.550, 149.343 83, 149.618 83 C 149.893 83, 149.840 82.550, 149.500 82 C 149.160 81.450, 148.657 81, 148.382 81 C 148.107 81, 148.160 81.450, 148.500 82 M 145 83 C 145 83.733, 145.300 84.033, 145.667 83.667 C 146.033 83.300, 146.033 82.700, 145.667 82.333 C 145.300 81.967, 145 82.267, 145 83 M 26.924 88.750 L 24.500 91.500 27.250 89.076 C 29.820 86.810, 30.459 86, 29.674 86 C 29.495 86, 28.258 87.237, 26.924 88.750 M 66.923 87.917 C 66.881 88.237, 66.713 89.175, 66.549 90 C 66.356 90.971, 67.030 91.500, 68.459 91.500 C 69.673 91.500, 70.667 90.957, 70.667 90.294 C 70.667 89.631, 70.215 89.367, 69.663 89.708 C 69.088 90.064, 68.905 89.690, 69.235 88.831 C 69.577 87.939, 69.241 87.333, 68.405 87.333 C 67.632 87.333, 66.966 87.596, 66.923 87.917 M 75.773 89.591 C 76.026 90.916, 76.631 92, 77.117 92 C 78.533 92, 78.133 88.265, 76.656 87.698 C 75.694 87.329, 75.443 87.866, 75.773 89.591 M 85.180 89.250 C 85.390 90.727, 86.187 91.500, 87.500 91.500 C 88.813 91.500, 89.610 90.727, 89.820 89.250 C 89.995 88.013, 89.700 87, 89.163 87 C 88.626 87, 88.403 87.825, 88.667 88.833 C 88.967 89.982, 88.610 90.667, 87.710 90.667 C 86.810 90.667, 86.453 89.982, 86.754 88.833 C 87.020 87.816, 86.705 87, 86.047 87 C 85.389 87, 85.003 88.002, 85.180 89.250 M 91.250 89.799 C 91.250 92.322, 93.981 92.562, 94.797 90.111 C 95.104 89.188, 94.796 88.961, 93.880 89.435 C 93.121 89.827, 93.310 89.486, 94.301 88.677 C 95.994 87.293, 95.956 87.214, 93.676 87.353 C 91.855 87.463, 91.250 88.073, 91.250 89.799 M 100.100 89.250 C 100.023 91.367, 100.461 92, 102 92 C 103.479 92, 104 91.333, 104 89.441 C 104 86.661, 102.066 87, 101.900 89.809 C 101.838 90.862, 101.498 90.556, 101 89 L 100.199 86.500 100.100 89.250 M 105 89.441 C 105 91.358, 105.517 92, 107.059 92 C 108.199 92, 108.838 91.546, 108.490 90.984 C 108.144 90.425, 107.448 90.223, 106.942 90.536 C 106.437 90.848, 106.273 90.451, 106.580 89.653 C 106.886 88.855, 106.656 87.905, 106.068 87.542 C 105.417 87.140, 105 87.881, 105 89.441 M 108 87.976 C 108 88.604, 108.412 88.864, 108.915 88.553 C 109.418 88.242, 110.059 88.452, 110.340 89.019 C 110.620 89.586, 110.743 89.504, 110.612 88.838 C 110.302 87.252, 108 86.492, 108 87.976 M 114 88.941 C 114 90.009, 114.385 91.120, 114.856 91.411 C 115.326 91.702, 115.499 90.828, 115.239 89.470 C 114.675 86.519, 114 86.231, 114 88.941 M 120.954 87.500 C 120.895 88.050, 120.713 89.175, 120.549 90 C 120.356 90.971, 121.030 91.500, 122.459 91.500 C 123.673 91.500, 124.667 90.957, 124.667 90.294 C 124.667 89.631, 124.319 89.303, 123.895 89.565 C 123.470 89.827, 122.659 89.245, 122.092 88.271 C 121.525 87.297, 121.013 86.950, 120.954 87.500 M 126.298 89 C 126.444 90.802, 127.168 91.594, 128.891 91.838 C 130.657 92.088, 131.135 91.793, 130.719 90.710 C 130.409 89.903, 130.684 88.648, 131.328 87.920 C 132.284 86.841, 132.206 86.816, 130.908 87.790 C 130.032 88.446, 128.922 88.649, 128.441 88.241 C 127.960 87.834, 128.190 88.313, 128.952 89.306 C 130.138 90.852, 130.134 91.069, 128.919 90.806 C 128.139 90.638, 127.184 89.600, 126.798 88.500 C 126.209 86.820, 126.129 86.901, 126.298 89 M 136 89.500 C 136 90.875, 136.388 92, 136.861 92 C 137.335 92, 137.508 90.875, 137.245 89.500 C 136.982 88.125, 136.594 87, 136.383 87 C 136.173 87, 136 88.125, 136 89.500 M 141.064 89 C 140.990 90.945, 140.763 91.173, 140.039 90.029 C 139.527 89.220, 138.848 88.818, 138.530 89.136 C 138.212 89.455, 138.632 90.280, 139.464 90.970 C 140.698 91.995, 141.088 91.935, 141.582 90.646 C 141.916 89.777, 141.957 88.489, 141.673 87.783 C 141.390 87.077, 141.115 87.625, 141.064 89 M 143.116 89.250 C 143.031 91.265, 143.477 92, 144.782 92 C 146.013 92, 146.623 91.149, 146.756 89.250 C 146.933 86.707, 146.843 86.637, 145.561 88.322 C 144.220 90.084, 144.159 90.084, 143.703 88.322 C 143.391 87.114, 143.193 87.427, 143.116 89.250 M 149.433 88.575 C 151.093 89.788, 151.653 91.522, 150.069 90.543 C 149.557 90.226, 148.856 90.425, 148.510 90.984 C 148.163 91.546, 148.797 92, 149.930 92 C 151.451 92, 151.929 91.413, 151.788 89.714 C 151.665 88.217, 150.955 87.429, 149.732 87.429 C 148.084 87.429, 148.049 87.563, 149.433 88.575 M 97.731 89.920 C 97.296 91.583, 97.426 91.974, 98.168 91.232 C 98.750 90.650, 99.028 89.585, 98.788 88.863 C 98.538 88.114, 98.085 88.568, 97.731 89.920 M 116 89.167 C 116 89.625, 116.423 90, 116.941 90 C 117.459 90, 118.114 89.625, 118.397 89.167 C 118.680 88.708, 118.257 88.333, 117.456 88.333 C 116.655 88.333, 116 88.708, 116 89.167 M 133.731 89.920 C 133.296 91.583, 133.426 91.974, 134.168 91.232 C 134.750 90.650, 135.028 89.585, 134.788 88.863 C 134.538 88.114, 134.085 88.568, 133.731 89.920 M 83 90.059 C 83 90.641, 82.581 90.859, 82.069 90.543 C 81.557 90.226, 80.913 90.331, 80.638 90.776 C 80.363 91.221, 81.007 91.650, 82.069 91.730 C 83.149 91.812, 84 91.242, 84 90.438 C 84 89.647, 83.775 89, 83.500 89 C 83.225 89, 83 89.477, 83 90.059 M 21.924 94.750 L 19.500 97.500 22.250 95.076 C 24.820 92.810, 25.459 92, 24.674 92 C 24.495 92, 23.258 93.237, 21.924 94.750 M 43.333 94.667 C 43.700 95.033, 44.300 95.033, 44.667 94.667 C 45.033 94.300, 44.733 94, 44 94 C 43.267 94, 42.967 94.300, 43.333 94.667 M 37.813 96.683 C 38.534 96.972, 39.397 96.936, 39.729 96.604 C 40.061 96.272, 39.471 96.036, 38.417 96.079 C 37.252 96.127, 37.015 96.364, 37.813 96.683 M 32.500 98 C 31.181 98.567, 31.011 98.878, 32 98.914 C 32.825 98.945, 34.175 98.533, 35 98 C 36.828 96.819, 35.249 96.819, 32.500 98 M 17.174 100.314 C 14.418 103.248, 14.435 104.029, 17.250 103.884 C 19.078 103.790, 19.155 103.679, 17.661 103.293 C 15.945 102.851, 15.974 102.657, 18.085 100.409 C 19.330 99.084, 20.124 98, 19.849 98 C 19.574 98, 18.370 99.042, 17.174 100.314 M 26.500 100 C 25.181 100.567, 25.011 100.878, 26 100.914 C 26.825 100.945, 28.175 100.533, 29 100 C 30.828 98.819, 29.249 98.819, 26.500 100 M 22.333 101.667 C 22.700 102.033, 23.300 102.033, 23.667 101.667 C 24.033 101.300, 23.733 101, 23 101 C 22.267 101, 21.967 101.300, 22.333 101.667" stroke="none" fill="#f4ae41" fill-rule="evenodd"/></svg>